<!--?xml version="1.0" encoding="iso-8859-1"?-->
<!-- Generator: Adobe Illustrator 22.1.0, SVG Export Plug-In . SVG Version: 6.00 Build 0)  -->
<svg version="1.1" id="_x34_" xmlns="http://www.w3.org/2000/svg" xmlns:xlink="http://www.w3.org/1999/xlink" x="0px" y="0px" viewBox="0 0 512 399.7" style="width: 16px; height: 13px;" xml:space="preserve">
<style type="text/css">
	.st0{fill:#81BA6E;}
	.st1{fill:#FFFFF9;}
	.st2{opacity:5.000000e-02;fill:#262727;}
	.st3{opacity:0.1;fill:#262727;}
	.st4{opacity:0.1;fill:#FFFFFF;}
</style>
<g>
	<path class="st0" d="M512,67v325.4c0,3.9-3.2,7.2-7.2,7.2H7.2c-4,0-7.2-3.3-7.2-7.2V7.2C0,3.2,3.2,0,7.2,0h197.9c11,0,20,9,20,20   v39.8h279.7C508.8,59.8,512,63.1,512,67z"/>
	<path class="st1" d="M281.8,317.7c-9.3,0-16.9-7.6-16.9-16.9v-71.7c0-9.3,7.6-16.9,16.9-16.9h147.5c9.3,0,16.9,7.6,16.9,16.9v71.7   c0,9.3-7.6,16.9-16.9,16.9H281.8z"/>
	<g>
		<path class="st2" d="M504.8,382.4H7.2c-4,0-7.2-3.3-7.2-7.2v17.3c0,3.9,3.2,7.2,7.2,7.2h497.6c4,0,7.2-3.3,7.2-7.2v-17.3    C512,379.1,508.8,382.4,504.8,382.4z"/>
		<path class="st2" d="M281.8,347.3h147.5c25.7,0,46.6-20.9,46.6-46.5v-71.8c0-25.7-20.9-46.6-46.6-46.6H281.8    c-25.6,0-46.6,20.9-46.6,46.6v71.8C235.3,326.4,256.2,347.3,281.8,347.3z M264.9,229.1c0-9.4,7.6-16.9,16.9-16.9h147.5    c9.3,0,16.9,7.5,16.9,16.9v71.8c0,9.3-7.6,16.9-16.9,16.9H281.8c-9.3,0-16.9-7.6-16.9-16.9V229.1z"/>
	</g>
	<g>
		<rect x="298.2" y="235.9" class="st3" width="114.8" height="18.5"/>
		<rect x="298.2" y="275.4" class="st3" width="92.1" height="18.5"/>
	</g>
	<path class="st4" d="M512,67.1v5H211.1V32.2c0-11-9-20-20-20H0v-5C0,3.2,3.2,0,7.2,0h197.9c11,0,20,9,20,20v39.8h279.7   C508.8,59.9,512,63.1,512,67.1z"/>
</g>
</svg>